<svg xmlns="http://www.w3.org/2000/svg" width="102.249" height="93" viewBox="0 0 102.249 93">
  <g id="Logo" transform="translate(-3366.631 -1147)">
    <path id="Polygon_7" d="M223.4,55.22a10.606,10.606,0,0,1,18.362,0l23.26,40.243a10.6,10.6,0,0,1-9.181,15.9H209.324a10.6,10.6,0,0,1-9.181-15.9Z" transform="translate(3202.414 1097.075)" fill="#ea3788"/>
    <path id="Polygon_7-2" data-name="Polygon_7" d="M223.4,55.22a10.606,10.606,0,0,1,18.362,0l23.26,40.243a10.6,10.6,0,0,1-9.181,15.9H209.324a10.6,10.6,0,0,1-9.181-15.9Z" transform="translate(3167.928 1097.075)" fill="#b0228c"/>
    <path id="Intersection_1" d="M209.324,182.578a10.6,10.6,0,0,1-9.181-15.9L215.388,140.3l15.245,26.376a10.6,10.6,0,0,1-9.181,15.9Z" transform="translate(3202.414 1025.862)" fill="#df127f"/>
    <g id="Group_4660" data-name="Group 4660" transform="translate(3369.764 1219.161)">
      <path id="Path_2368" data-name="Path 2368" d="M-1395.339,2079.582v5.468h7.7v2.757h-7.7v8.681h-3.261V2076.8h11.511v2.758h-8.249Z" transform="translate(1398.6 -2075.985)" fill="#292d30"/>
      <path id="Path_2369" data-name="Path 2369" d="M-1336.654,2075.3a1.847,1.847,0,0,1,1.367.5,1.827,1.827,0,0,1,.5,1.343,1.826,1.826,0,0,1-.5,1.343,1.846,1.846,0,0,1-1.367.5,1.828,1.828,0,0,1-1.343-.5,1.827,1.827,0,0,1-.5-1.343,1.828,1.828,0,0,1,.5-1.343A1.888,1.888,0,0,1-1336.654,2075.3Zm1.511,5.516v14.532h-3.022v-14.532Z" transform="translate(1352.912 -2074.844)" fill="#292d30"/>
      <path id="Path_2370" data-name="Path 2370" d="M-1296.5,2102.248v9.544h-3.021v-9.112c0-2.134-1.007-3.213-3.046-3.213a3.363,3.363,0,0,0-2.71,1.151,4.554,4.554,0,0,0-1.007,3.117v8.057h-3.021v-11.2c0-1.511-.024-2.638-.1-3.357h2.686a17.559,17.559,0,0,1,.168,2.3,5.516,5.516,0,0,1,5.06-2.638,4.808,4.808,0,0,1,3.669,1.391A5.518,5.518,0,0,1-1296.5,2102.248Z" transform="translate(1330.79 -2091.265)" fill="#292d30"/>
      <path id="Path_2371" data-name="Path 2371" d="M-1243.881,2081.163a5.292,5.292,0,0,1,.792-2.877,5.4,5.4,0,0,1,2.278-1.966,8.043,8.043,0,0,1,3.525-.719,7.692,7.692,0,0,1,4.172,1.031,5.222,5.222,0,0,1,2.278,2.95l-2.638,1.2a3.688,3.688,0,0,0-1.319-1.8,4.211,4.211,0,0,0-2.422-.6,3.973,3.973,0,0,0-2.542.671,2.317,2.317,0,0,0-.839,1.943,2.5,2.5,0,0,0,.36,1.391,2.7,2.7,0,0,0,1.2.911,11.661,11.661,0,0,0,2.326.671,9.025,9.025,0,0,1,4.8,2.086,5.343,5.343,0,0,1,1.463,4,5.187,5.187,0,0,1-.887,3,5.821,5.821,0,0,1-2.47,2.062,8.282,8.282,0,0,1-3.621.743,8.685,8.685,0,0,1-4.652-1.151,5.68,5.68,0,0,1-2.518-3.285l2.662-1.223a3.838,3.838,0,0,0,1.582,2.158,5.365,5.365,0,0,0,2.9.744,4.341,4.341,0,0,0,2.757-.768,2.611,2.611,0,0,0,.959-2.182,2.577,2.577,0,0,0-.959-2.134,7.839,7.839,0,0,0-3.333-1.247,8.4,8.4,0,0,1-4.413-1.967A4.839,4.839,0,0,1-1243.881,2081.163Z" transform="translate(1281.529 -2075.073)" fill="#292d30"/>
      <path id="Path_2372" data-name="Path 2372" d="M-1160.895,2084.383v9.544h-3.022v-9.112c0-2.134-1.007-3.213-3.045-3.213a3.365,3.365,0,0,0-2.71,1.151,4.556,4.556,0,0,0-1.007,3.118v8.058h-3.021V2073.4h3.021v7.866a5.6,5.6,0,0,1,4.8-2.206,4.806,4.806,0,0,1,3.669,1.391A5.564,5.564,0,0,1-1160.895,2084.383Z" transform="translate(1227.631 -2073.4)" fill="#292d30"/>
      <path id="Path_2373" data-name="Path 2373" d="M-1095.431,2105.345h-10a4.94,4.94,0,0,0,1.175,3.238,3.567,3.567,0,0,0,2.758,1.151,3.538,3.538,0,0,0,2.086-.528,3.568,3.568,0,0,0,1.2-1.583l2.494,1.175q-1.4,3.381-5.756,3.381a7.068,7.068,0,0,1-3.741-.959,6.473,6.473,0,0,1-2.446-2.686,8.727,8.727,0,0,1-.839-3.957,8.7,8.7,0,0,1,.863-3.933,6.638,6.638,0,0,1,2.374-2.686,6.135,6.135,0,0,1,3.4-.959,6.313,6.313,0,0,1,3.453.935,6.018,6.018,0,0,1,2.254,2.662,9.432,9.432,0,0,1,.767,3.981A6.865,6.865,0,0,1-1095.431,2105.345Zm-9.928-2.23h6.906a4.766,4.766,0,0,0-1.079-2.71,2.971,2.971,0,0,0-2.326-.959,3.076,3.076,0,0,0-2.326.959A4.433,4.433,0,0,0-1105.359,2103.115Z" transform="translate(1178.066 -2091.341)" fill="#292d30"/>
      <path id="Path_2374" data-name="Path 2374" d="M-1037.679,2073.4v20.527h-3.021V2073.4Z" transform="translate(1126.524 -2073.4)" fill="#292d30"/>
      <path id="Path_2375" data-name="Path 2375" d="M-1008.779,2073.4v20.527h-3.022V2073.4Z" transform="translate(1104.554 -2073.4)" fill="#292d30"/>
    </g>
  </g>
</svg>
